inDegrees=yes
name=ik_.mot
DataType=double
version=3
OpenSimVersion=4.3-2021-08-27-4bc7ad9
endheader
time	pelvis_tilt	pelvis_list	pelvis_rotation	pelvis_tx	pelvis_ty	pelvis_tz	hip_flexion_r	hip_adduction_r	hip_rotation_r	knee_angle_r	knee_angle_r_beta	ankle_angle_r	subtalar_angle_r	mtp_angle_r	hip_flexion_l	hip_adduction_l	hip_rotation_l	knee_angle_l	knee_angle_l_beta	ankle_angle_l	subtalar_angle_l	mtp_angle_l	lumbar_extension	lumbar_bending	lumbar_rotation	arm_flex_r	arm_add_r	arm_rot_r	elbow_flex_r	pro_sup_r	wrist_flex_r	wrist_dev_r	arm_flex_l	arm_add_l	arm_rot_l	elbow_flex_l	pro_sup_l	wrist_flex_l	wrist_dev_l
10.38	-0.2423803713420561	-1.446532383600342	2.788429195495407	0	0.9399999999999999	0	45.00114801519207	-9.999999984048747	0	59.99779582766229	1.047159081132023	-4.99999985101242	0	0	45.00114801519207	-9.999999984048747	0	59.99779582766229	1.047159081132023	-4.99999985101242	0	0	-1.85820548324516	1.030645310841399	-1.303550307879906	0	-14.94650739205236	0	75.00015382313184	45.00000032179158	0	0	-5.095009815965549	67.38686996782988	-41.95906944930626	0.003177618610127394	45.00000032179158	0	0
10.39	-0.2561625090613946	-1.442529466132811	2.775330952205382	0	0.9399999999999999	0	45.00114613115764	-9.999999984074783	0	59.99779883642806	1.047159133644892	-4.999999851012682	0	0	45.00114613115764	-9.999999984074783	0	59.99779883642806	1.047159133644892	-4.999999851012682	0	0	-1.834806402846785	1.021234056517272	-1.303842552852257	0	-14.9465522221636	0	75.0001538592779	45.00000032148925	0	0	-4.446839704561952	68.19066166104248	-42.83448912400326	0.003154130967819081	45.00000032148925	0	0
10.4	-0.2411192711102203	-1.438335943001475	2.797169951577822	0	0.9399999999999999	0	45.00113283241111	-9.999999984239137	0	59.99782137642513	1.047159527042055	-4.999999851014277	0	0	45.00113283241111	-9.999999984239137	0	59.99782137642513	1.047159527042055	-4.999999851014277	0	0	-1.863487961239895	1.009616494884534	-1.344345107239726	0	-14.94688310172513	0	75.00015411442045	45.00000031953199	0	0	-3.885063008942891	66.61517107518702	-43.24500723632957	0.003192521985367736	45.00000031953199	0	0
10.41	-0.2553731617944581	-1.435727322501367	2.779636683081658	0	0.9399999999999999	0	45.00111341532693	-9.999999984450829	0	59.99785573894454	1.047160126781158	-4.999999851016264	0	0	45.00111341532693	-9.999999984450829	0	59.99785573894454	1.047160126781158	-4.999999851016264	0	0	-1.839350690572317	0.9983122141537638	-1.318478338977405	0	-14.94738869286789	0	75.00015448694631	45.00000031693837	0	0	-3.00450833656673	62.71322536040828	-44.05799795771814	0.003299329374347486	45.00000031693837	0	0
10.42	-0.2676346391094112	-1.428085736773235	2.791676719322386	0	0.9399999999999999	0	45.00109138357351	-9.99999998467691	0	59.99789350047556	1.047160785844204	-4.999999851018329	0	0	45.00109138357351	-9.99999998467691	0	59.99789350047556	1.047160785844204	-4.999999851018329	0	0	-1.818416381993018	0.992146256366537	-1.336145890654101	0	-14.94796157102063	0	75.00015490963584	45.00000031411366	0	0	-2.305557845324249	59.79881632841878	-45.67558343521488	0.00344278831919752	45.00000031411366	0	0
10.43	-0.2795592134645045	-1.423878052380281	2.803162104125819	0	0.9399999999999999	0	45.0010808791159	-9.999999984783763	0	59.99791176342033	1.047161104592722	-4.999999851019307	0	0	45.0010808791159	-9.999999984783763	0	59.99791176342033	1.047161104592722	-4.999999851019307	0	0	-1.80245381963818	0.9835242125170828	-1.360143319423952	0	-14.94823748458456	0	75.00015511116881	45.00000031277886	0	0	-1.752300226907725	57.99397003277301	-46.49881398919006	0.003514141157243361	45.00000031277886	0	0
10.44	-0.2873469444291379	-1.408958219731277	2.810922870709625	0	0.9399999999999999	0	45.00107961195537	-9.999999984799334	0	59.99791380703626	1.047161140260549	-4.999999851019457	0	0	45.00107961195537	-9.999999984799334	0	59.99791380703626	1.047161140260549	-4.999999851019457	0	0	-1.799686945408143	0.9634013308658804	-1.375119219282722	0	-14.94826847801808	0	75.00015513547984	45.00000031259216	0	0	-1.065639288900317	57.99859789912507	-47.34738871754691	0.003509871135018273	45.00000031259216	0	0
10.45	-0.2922098853582884	-1.387634274802036	2.817383398275108	0	0.9399999999999999	0	45.00107879233635	-9.999999984809374	0	59.99791512995886	1.047161163349904	-4.999999851019555	0	0	45.00107879233635	-9.999999984809374	0	59.99791512995886	1.047161163349904	-4.999999851019555	0	0	-1.799691856885796	0.9217141221063919	-1.387299866724781	0	-14.94828854253133	0	75.00015515120462	45.00000031247168	0	0	-0.5433619967296245	56.96078906762974	-47.71768511529298	0.003539168894114822	45.00000031247168	0	0
10.46	-0.3065649841500426	-1.400454736889251	2.831765842272637	0	0.9399999999999999	0	45.00107233589398	-9.999999984877041	0	59.99792623612868	1.047161357189134	-4.999999851020176	0	0	45.00107233589398	-9.999999984877041	0	59.99792623612868	1.047161357189134	-4.999999851020176	0	0	-1.783603317045085	0.9520533266257541	-1.416760326188584	0	-14.94845613738061	0	75.00015527507446	45.00000031163151	0	0	0.05313432858799255	55.61354316300142	-48.2510872771968	0.003565209085884552	45.00000031163151	0	0
10.47	-0.3200818700162842	-1.398700633156518	2.828832113092212	0	0.9399999999999999	0	45.00106451222471	-9.999999984956666	0	59.99793991745796	1.047161595973376	-4.999999851020901	0	0	45.00106451222471	-9.999999984956666	0	59.99793991745796	1.047161595973376	-4.999999851020901	0	0	-1.772280250988672	0.9433949528891031	-1.415266211128902	0	-14.94866164581439	0	75.00015542517527	45.00000031063593	0	0	0.7295662199186955	54.02267547009754	-48.6882328078857	0.003581562774810758	45.00000031063593	0	0
10.48	-0.3110691575225196	-1.413526288979171	2.847709246920823	0	0.9399999999999999	0	45.00105261534622	-9.999999985075194	0	59.9979607918659	1.047161960300524	-4.999999851021974	0	0	45.00105261534622	-9.999999985075194	0	59.9979607918659	1.047161960300524	-4.999999851021974	0	0	-1.780968472760509	0.9527770515381521	-1.457424774231853	0	-14.94897592979492	0	75.00015565342247	45.0000003091453	0	0	1.400708059430618	51.74861301340937	-49.07796343639546	0.003634077327573447	45.0000003091453	0	0
10.49	-0.3240613983635153	-1.39624211480583	2.849063751773842	0	0.9399999999999999	0	45.00104163788068	-9.999999985188476	0	59.99797979877025	1.047162292033586	-4.999999851023007	0	0	45.00104163788068	-9.999999985188476	0	59.99797979877025	1.047162292033586	-4.999999851023007	0	0	-1.761423575956426	0.9543082550835892	-1.447826323521294	0	-14.94926145261164	0	75.00015586403029	45.00000030772986	0	0	3.02878153801828	49.93582534089958	-49.85269454470399	0.003575008394754726	45.00000030772986	0	0
10.5	-0.3247951963269933	-1.383436660795607	2.846190679246028	0	0.9399999999999999	0	45.00102617359465	-9.99999998533109	0	59.99800715730873	1.047162769530161	-4.999999851024258	0	0	45.00102617359465	-9.99999998533109	0	59.99800715730873	1.047162769530161	-4.999999851024258	0	0	-1.768887688649144	0.9358153579232866	-1.447627858657473	0	-14.94967685006317	0	75.00015616072	45.00000030589734	0	0	8.175183534541862	46.84141962139255	-52.27010215348782	0.003279261013519754	45.00000030589734	0	0
10.51	-0.3216525825286288	-1.377594791352704	2.838031502182752	0	0.9399999999999999	0	45.0010035445658	-9.99999998552555	0	59.99804767140467	1.047163476634528	-4.99999985102593	0	0	45.0010035445658	-9.99999998552555	0	59.99804767140467	1.047163476634528	-4.99999985102593	0	0	-1.772637340819426	0.9251229665423827	-1.436787608260535	0	-14.95029686638109	0	75.00015659486871	45.00000030335525	0	0	15.58307114376815	41.96827323057757	-55.19366553960748	0.00288373996840552	45.00000030335525	0	0
10.52	-0.3478507067667068	-1.374958962086298	2.850632991154487	0	0.9399999999999999	0	45.00097098409329	-9.999999985789144	0	59.99810755804583	1.047164521853595	-4.999999851028168	0	0	45.00097098409329	-9.999999985789144	0	59.99810755804583	1.047164521853595	-4.999999851028168	0	0	-1.75486053806193	0.9189390018921532	-1.452444218820617	0	-14.95121328983656	0	75.00015721955702	45.00000029987011	0	0	20.85509305014943	34.14251139407276	-55.05132627194566	0.002678442858702573	45.00000029987011	0	0
10.53	-0.3474457502168717	-1.375671082551168	2.850417169001833	0	0.9399999999999999	0	45.00094198981557	-9.999999986005422	0	59.99816069372306	1.047165449246112	-4.999999851029941	0	0	45.00094198981557	-9.999999986005422	0	59.99816069372306	1.047165449246112	-4.999999851029941	0	0	-1.75246538265249	0.9088064757251929	-1.457622629596144	0	-14.95204020302995	0	75.00015777582628	45.00000029694225	0	0	29.08525575564262	27.4511021033867	-55.58331454521043	0.002334956381339636	45.00000029694225	0	0
10.54	-0.3360440074123174	-1.357267602094135	2.848609014891196	0	0.9399999999999999	0	45.00090327220736	-9.999999986283987	0	59.99822896820715	1.047166640860655	-4.999999851032192	0	0	45.00090327220736	-9.999999986283987	0	59.99822896820715	1.047166640860655	-4.999999851032192	0	0	-1.770811807540499	0.8956242257465232	-1.464973770084816	0	-14.95314069844164	0	75.00015851864234	45.00000029312725	0	0	39.68350457141035	23.96509120310197	-54.76840836625661	0.001948321895873506	45.00000029312725	0	0
10.55	-0.3517985397804521	-1.358892862981133	2.850008773367096	0	0.9399999999999999	0	45.00086550509319	-9.99999998652835	0	59.99829612950252	1.047167813046389	-4.999999851034097	0	0	45.00086550509319	-9.99999998652835	0	59.99829612950252	1.047167813046389	-4.999999851034097	0	0	-1.744836919226258	0.8952529074301554	-1.472772378771934	0	-14.95424211071465	0	75.0001592432229	45.00000028968673	0	0	49.60710207019569	19.45212771868962	-52.13180070977341	0.001694157653739241	45.00000028968673	0	0
10.56	-0.3562180894665299	-1.342916475939164	2.857377071014851	0	0.9399999999999999	0	45.00085870571884	-9.99999998657043	0	59.99830986187633	1.047168052721526	-4.99999985103443	0	0	45.00085870571884	-9.99999998657043	0	59.99830986187633	1.047168052721526	-4.99999985103443	0	0	-1.718095123798204	0.8652935630232	-1.479555412007066	0	-14.95445327151432	0	75.00015937367228	45.00000028909522	0	0	62.111810692548	18.61604291236061	-48.58971655960983	0.001445405287693236	45.00000028909522	0	0
10.57	-0.3676074885515869	-1.348944435966273	2.862745360092143	0	0.9399999999999999	0	45.0008293654798	-9.999999986706236	0	59.99836363199552	1.047168991187145	-4.99999985103538	0	0	45.0008293654798	-9.999999986706236	0	59.99836363199552	1.047168991187145	-4.99999985103538	0	0	-1.690603560990342	0.8908468370413495	-1.489771820163542	0	-14.95538618778214	0	75.00015993657954	45.00000028701599	0	0	72.55500491256349	17.19572813322583	-43.82952009108253	0.001306071724306516	45.00000028701599	0	0
10.58	-0.3582313775837364	-1.353993597182513	2.874942581690437	0	0.9399999999999999	0	45.00083064750269	-9.999999986658343	0	59.9983638262438	1.047168994577417	-4.999999851034929	0	0	45.00083064750269	-9.999999986658343	0	59.9983638262438	1.047168994577417	-4.999999851034929	0	0	-1.691276813632222	0.906246515122428	-1.501463018427663	0	-14.95540574401688	0	75.00015991198364	45.00000028756855	0	0	80.20497877154143	18.38122561857557	-38.45948664215138	0.001228951171066213	45.00000028756855	0	0
10.59	-0.3575565513704714	-1.336900234049573	2.864421433749942	0	0.9399999999999999	0	45.0008236049048	-9.999999986684069	0	59.99837697983527	1.047169224150897	-4.999999851035092	0	0	45.0008236049048	-9.999999986684069	0	59.99837697983527	1.047169224150897	-4.999999851035092	0	0	-1.661924364814106	0.8838936224298118	-1.476640517256427	0	-14.95563759499985	0	75.0001600470995	45.00000028714472	0	0	85.54854987404035	21.13191540219164	-33.39107985836313	0.001186357675649058	45.00000028714472	0	0
10.6	-0.3638565760022209	-1.324359339927591	2.857034453685994	0	0.9399999999999999	0	45.00080613572474	-9.99999998677651	0	59.99840879407129	1.047169779414064	-4.999999851035763	0	0	45.00080613572474	-9.99999998677651	0	59.99840879407129	1.047169779414064	-4.999999851035763	0	0	1.001038978016847	-0.8148513938038888	-1.465350225354027	0	-14.95617533679359	0	75.00016038225445	45.00000028577526	0	0	89.95597326142678	31.06996879256081	-33.16497482988232	0.001100710656146359	45.00000028577526	0	0
10.61	-0.3531608301292891	-1.319905798252161	2.88580048521598	0	0.9399999999999999	0	45.00079316262275	-9.999999986861837	0	59.99843161170558	1.04717017765691	-4.999999851036433	0	0	45.00079316262275	-9.999999986861837	0	59.99843161170558	1.04717017765691	-4.999999851036433	0	0	2.541150770235602	-2.021097189562052	-1.480796214147411	0	-14.95655359797088	0	75.00016063114974	45.00000028458165	0	0	89.97216508774942	32.957678317637	-31.36745986562946	0.001087070070336283	45.00000028458165	0	0
